<?xml version="1.0" encoding="UTF-8"?>
<svg xmlns="http://www.w3.org/2000/svg" xmlns:xlink="http://www.w3.org/1999/xlink" viewBox="0 0 250 250" width="212px" height="212px">
<g id="surface64825304">
<path style=" stroke:none;fill-rule:nonzero;fill:rgb(80.392158%,61.960787%,15.686275%);fill-opacity:1;" d="M 125 10 C 61.589844 10 10 61.585938 10 125 C 10 188.414062 61.589844 240 125 240 C 188.410156 240 240 188.414062 240 125 C 240 61.585938 188.410156 10 125 10 Z M 90 175 L 70 175 L 70 100 L 90 100 Z M 80 85 C 74.476562 85 70 80.523438 70 75 C 70 69.476562 74.476562 65 80 65 C 85.523438 65 90 69.476562 90 75 C 90 80.523438 85.523438 85 80 85 Z M 185 175 L 165 175 L 165 137.5 C 165 127.875 157.125 120 147.5 120 C 137.875 120 130 127.875 130 137.5 L 130 175 L 110 175 L 110 100 L 130 100 L 130 109.078125 C 135.839844 103.46875 143.761719 100 152.5 100 C 170.449219 100 185 114.550781 185 132.5 Z M 185 175 "/>
</g>
</svg>
